<?xml version="1.0" encoding="UTF-8"?>
<svg xmlns="http://www.w3.org/2000/svg" xmlns:xlink="http://www.w3.org/1999/xlink" width="200px" height="142px" viewBox="0 0 200 142" version="1.1">
<g id="surface1">
<path style=" stroke:none;fill-rule:evenodd;fill:rgb(98.431373%,98.431373%,98.431373%);fill-opacity:1;" d="M 135.707031 45.445312 C 134.664062 45.914062 134.484375 46.996094 135.207031 48.503906 C 135.722656 49.578125 135.757812 49.777344 135.464844 49.972656 C 135.019531 50.265625 134.953125 50.203125 133.875 48.492188 C 132.808594 46.792969 130.300781 47.765625 130.917969 49.636719 C 131.226562 50.582031 132.007812 50.96875 133.554688 50.949219 L 134.570312 50.9375 L 134.699219 51.21875 C 134.863281 51.5625 134.867188 51.679688 134.710938 51.902344 C 134.585938 52.082031 134.398438 52.144531 133.097656 52.441406 C 131.238281 52.867188 130.71875 54.980469 132.308594 55.664062 C 133.472656 56.164062 134.34375 55.472656 134.914062 53.605469 C 135.242188 52.539062 135.257812 52.519531 135.738281 52.519531 C 136.382812 52.519531 136.375 52.5 136.375 54.082031 C 136.375 55.46875 136.378906 55.492188 136.605469 55.882812 C 137.558594 57.507812 139.890625 56.632812 139.511719 54.785156 C 139.382812 54.15625 139.117188 53.851562 138.164062 53.265625 C 136.875 52.46875 136.667969 52.082031 137.226562 51.496094 C 137.53125 51.175781 137.960938 51.1875 139.09375 51.554688 C 140.132812 51.894531 140.308594 51.90625 140.734375 51.691406 C 142.386719 50.835938 141.890625 48.585938 140.050781 48.589844 C 139.480469 48.589844 139.207031 48.765625 138.285156 49.722656 C 137.445312 50.601562 137.28125 50.667969 136.839844 50.292969 C 136.421875 49.941406 136.515625 49.582031 137.394531 48.238281 C 137.859375 47.519531 137.957031 47.179688 137.84375 46.667969 C 137.617188 45.660156 136.570312 45.058594 135.707031 45.445312 M 36.707031 51.023438 C 29.777344 51.460938 24.976562 53.273438 23.726562 55.921875 C 23.464844 56.472656 23.457031 56.523438 23.457031 57.597656 L 23.457031 58.707031 L 19.582031 58.707031 L 19.582031 60.714844 L 23.667969 60.714844 L 23.667969 80.535156 L 22 80.535156 L 22 82.207031 L 33.582031 82.207031 L 33.582031 80.535156 L 31.917969 80.535156 L 31.917969 60.714844 L 47.917969 60.714844 L 47.917969 72.921875 L 47.644531 73.03125 C 44.496094 74.328125 41.792969 72.488281 42.425781 69.476562 C 42.804688 67.667969 44.019531 66.832031 46.394531 66.738281 C 46.472656 66.734375 46.5 66.425781 46.5 65.480469 L 46.5 64.226562 L 40.355469 64.246094 L 34.207031 64.269531 L 34.183594 65.5 L 34.160156 66.734375 L 35.710938 66.734375 C 37.910156 66.734375 37.933594 66.757812 36.785156 67.84375 C 31.542969 72.824219 35.265625 79.796875 42.652344 78.820312 C 44.132812 78.625 45.628906 78.292969 46.667969 77.933594 C 47.195312 77.753906 47.691406 77.582031 47.769531 77.554688 C 47.90625 77.507812 47.917969 77.613281 47.917969 79.058594 L 47.917969 80.617188 L 46.332031 80.617188 L 46.332031 82.289062 L 57.832031 82.289062 L 57.832031 80.617188 L 56.25 80.617188 L 56.25 60.714844 L 72.75 60.714844 L 72.75 64.214844 L 69.4375 64.25 C 66.402344 64.28125 66.074219 64.296875 65.5 64.457031 C 61.496094 65.570312 59.417969 67.796875 58.570312 71.871094 C 57.46875 77.199219 62.324219 82.746094 67.035156 81.539062 C 68.308594 81.210938 68.636719 81.007812 68.695312 80.507812 C 68.8125 79.546875 68.828125 79.589844 67.882812 78.605469 C 64.355469 74.941406 64.167969 70.875 67.40625 68.199219 C 68.816406 67.035156 69.480469 66.789062 71.3125 66.753906 L 72.75 66.722656 L 72.75 80.617188 L 71.167969 80.617188 L 71.167969 82.289062 L 82.75 82.289062 L 82.75 80.617188 L 81.082031 80.617188 L 81.082031 60.714844 L 102.082031 60.714844 L 102.082031 64.277344 L 101.6875 64.46875 C 99.4375 65.5625 97.253906 68.453125 96.78125 70.957031 C 96.214844 73.980469 94.972656 75.570312 93.109375 75.667969 C 89.964844 75.835938 88.363281 71.542969 90.695312 69.203125 C 91.578125 68.316406 92.523438 68.09375 94.257812 68.363281 C 95.84375 68.609375 96.121094 68.523438 96.617188 67.628906 C 97.285156 66.425781 97.199219 65.726562 96.320312 65.226562 C 90.9375 62.171875 84.191406 65.394531 83.03125 71.578125 C 81.757812 78.382812 88.597656 84.183594 95.027344 81.753906 C 98.304688 80.515625 100.921875 77.101562 101.339844 73.515625 C 101.679688 70.605469 104.871094 69.320312 106.777344 71.328125 C 109.09375 73.765625 107.507812 77.761719 104.125 78.019531 C 100.089844 78.324219 99.972656 81.40625 103.96875 82.089844 C 113.171875 83.664062 118.351562 71.183594 110.894531 65.398438 L 110.332031 64.964844 L 110.332031 60.714844 L 112.230469 60.695312 L 114.125 60.671875 L 114.148438 59.6875 L 114.171875 58.707031 L 107.960938 58.707031 L 106.460938 58.046875 C 105.632812 57.683594 103.738281 56.851562 102.25 56.199219 C 100.761719 55.546875 99.261719 54.886719 98.917969 54.734375 C 98.574219 54.582031 97.425781 54.078125 96.367188 53.613281 L 94.441406 52.769531 L 91.90625 52.769531 L 89.808594 53.613281 C 88.652344 54.082031 87.660156 54.480469 87.605469 54.5 C 87.441406 54.566406 87.464844 54.625 88.054688 55.585938 C 88.363281 56.082031 88.617188 56.496094 88.621094 56.507812 C 88.625 56.515625 89.789062 56.148438 91.210938 55.6875 C 92.628906 55.230469 93.847656 54.847656 93.917969 54.839844 C 94.035156 54.828125 100.519531 58.449219 100.703125 58.628906 C 100.753906 58.675781 91.980469 58.707031 78.140625 58.707031 L 55.5 58.707031 L 55.789062 58.328125 C 56.917969 56.84375 55.652344 54.773438 52.722656 53.332031 C 49.21875 51.601562 42.613281 50.648438 36.707031 51.023438 M 42.410156 53.851562 C 45.257812 54.46875 47.355469 55.71875 48.019531 57.191406 C 48.183594 57.558594 48.253906 58.414062 48.132812 58.609375 C 48.089844 58.683594 46.046875 58.707031 40.007812 58.707031 L 31.941406 58.707031 L 31.890625 58.28125 C 31.675781 56.480469 34.289062 54.316406 37.375 53.734375 C 38.425781 53.539062 41.273438 53.605469 42.410156 53.851562 M 150.207031 58.070312 C 145.871094 58.90625 143.5 61.957031 144.386719 65.5625 C 144.652344 66.652344 145.53125 68.011719 146.398438 68.675781 L 146.753906 68.949219 L 146.523438 69.109375 C 143.808594 70.996094 143.042969 74.636719 144.816406 77.246094 C 148.207031 82.238281 158 82.1875 160.671875 77.160156 C 160.816406 76.894531 160.9375 76.6875 160.945312 76.703125 C 160.953125 76.714844 160.945312 77.519531 160.929688 78.484375 L 160.902344 80.242188 L 160.429688 80.449219 C 157.695312 81.644531 155.964844 84.410156 156.546875 86.664062 C 157.203125 89.203125 160.484375 91.292969 163.417969 91.039062 C 166.15625 90.800781 166.144531 87.808594 163.40625 87.808594 C 160.644531 87.808594 160.085938 84.210938 162.722656 83.421875 C 164.171875 82.988281 164.800781 83.277344 166.402344 85.117188 C 169.640625 88.832031 176.953125 87.492188 178.121094 82.972656 C 178.515625 81.445312 178.265625 79.980469 177.472656 79.164062 C 176.117188 77.769531 174.699219 78.796875 174.660156 81.195312 C 174.628906 83.125 171.707031 84.28125 170.390625 82.890625 C 170.09375 82.570312 169.082031 81.035156 169.171875 81.035156 C 169.21875 81.035156 169.257812 76.792969 169.269531 70.601562 L 169.292969 60.171875 L 170.394531 60.148438 L 171.5 60.125 L 171.5 58.203125 L 170.375 58.203125 C 169.429688 58.203125 169.25 58.183594 169.25 58.078125 C 169.25 57.96875 168.738281 57.953125 165.132812 57.953125 C 161.550781 57.953125 161.011719 57.96875 160.96875 58.078125 C 160.929688 58.183594 160.710938 58.203125 159.710938 58.203125 L 158.5 58.203125 L 158.5 60.125 L 159.730469 60.148438 L 160.957031 60.171875 L 160.980469 66.785156 L 161 73.398438 L 160.730469 73.71875 C 158.917969 75.855469 156.359375 77.199219 154.570312 76.945312 C 150.039062 76.308594 150.078125 72.0625 154.632812 70.207031 C 155.410156 69.890625 155.65625 69.429688 155.503906 68.597656 C 155.355469 67.792969 154.980469 67.523438 154.046875 67.550781 C 150.355469 67.671875 148.59375 65.023438 150.339844 61.976562 L 150.597656 61.527344 L 150.789062 62 C 151.964844 64.894531 156.203125 64.25 156.207031 61.175781 C 156.210938 58.835938 153.507812 57.4375 150.207031 58.070312 M 121.082031 59.710938 L 121.082031 60.714844 L 133.25 60.714844 L 133.25 65.410156 L 132.925781 65.152344 C 130.566406 63.28125 126.671875 62.996094 123.792969 64.492188 C 117.488281 67.761719 117.808594 76.746094 124.328125 79.578125 C 127.113281 80.789062 130.632812 80.40625 132.980469 78.628906 L 133.25 78.421875 L 133.25 80.617188 L 131.582031 80.617188 L 131.582031 82.289062 L 143.167969 82.289062 L 143.167969 80.617188 L 141.582031 80.617188 L 141.582031 60.714844 L 143.582031 60.714844 L 143.582031 58.707031 L 121.082031 58.707031 L 121.082031 59.710938 M 130.367188 67.738281 C 131.375 67.902344 132.429688 68.605469 132.992188 69.480469 L 133.25 69.886719 L 133.25 71.996094 C 133.25 74.082031 133.183594 74.597656 132.917969 74.597656 C 132.832031 74.597656 129.496094 67.8125 129.542969 67.734375 C 129.605469 67.632812 129.75 67.636719 130.367188 67.738281 M 128.136719 72.820312 C 130.089844 76.804688 129.933594 76.382812 129.398438 76.308594 C 126.695312 75.941406 125.113281 72.792969 126.289062 70.121094 C 126.398438 69.867188 126.511719 69.660156 126.542969 69.660156 C 126.570312 69.660156 127.285156 71.082031 128.136719 72.820312 M 101.800781 90.730469 C 100.394531 91.300781 100.277344 92.605469 101.507812 94.078125 L 102 94.667969 L 75.398438 94.667969 L 74.929688 94.234375 C 71.824219 91.378906 66.230469 90.09375 63.125 91.519531 C 61.785156 92.136719 61.429688 93.375 62.296875 94.40625 L 62.515625 94.667969 L 60.582031 94.667969 L 60.582031 95.753906 L 62.417969 95.753906 L 62.417969 102.242188 L 63.332031 102.800781 L 64.25 103.359375 L 64.269531 99.578125 L 64.292969 95.796875 L 66.894531 95.773438 L 69.5 95.75 L 69.5 98.679688 L 68.597656 98.679688 C 66.742188 98.679688 67.078125 99.429688 69.457031 100.625 C 71.007812 101.398438 71.265625 101.363281 71.332031 100.351562 L 71.375 99.726562 L 73.183594 99.703125 L 74.996094 99.679688 L 75.019531 100.957031 L 75.042969 102.230469 L 75.957031 102.796875 L 76.875 103.367188 L 76.898438 99.558594 L 76.917969 95.753906 L 85.421875 95.753906 L 85.398438 96.527344 C 85.371094 97.457031 85.421875 97.414062 83.957031 97.671875 C 81.007812 98.191406 79.820312 99.269531 80.574219 100.75 C 82.09375 103.738281 89.882812 103.332031 89.855469 100.261719 C 89.847656 99.277344 88.386719 97.761719 87.445312 97.761719 C 87.359375 97.761719 87.332031 97.550781 87.332031 96.757812 L 87.332031 95.753906 L 92.332031 95.753906 L 92.332031 102.238281 L 93.226562 102.78125 C 93.71875 103.078125 94.152344 103.335938 94.1875 103.351562 C 94.222656 103.367188 94.25 101.664062 94.25 99.566406 L 94.25 95.753906 L 102.167969 95.753906 L 102.167969 96.488281 L 100.269531 96.527344 C 97.457031 96.589844 96.726562 96.992188 97.324219 98.160156 C 98 99.476562 99.878906 100.175781 101.625 99.769531 C 102.917969 99.464844 103.417969 99.578125 103.417969 100.167969 C 103.417969 100.894531 101.253906 101.632812 100.613281 101.125 C 99.324219 100.105469 97.261719 100.585938 97.871094 101.765625 C 98.1875 102.382812 99.113281 102.71875 100.554688 102.742188 L 101.652344 102.753906 L 102.789062 103.792969 C 104.144531 105.03125 103.9375 104.941406 104.605469 104.550781 L 105.15625 104.230469 L 103.878906 103.320312 L 102.605469 102.410156 L 103.058594 102.222656 C 106.3125 100.898438 104.09375 97.789062 100.535156 98.683594 C 99.582031 98.921875 99.136719 98.878906 98.816406 98.519531 C 98.199219 97.828125 98.414062 97.761719 101.257812 97.761719 L 103.667969 97.761719 L 103.667969 95.753906 L 113 95.753906 L 113 96.546875 C 113 96.984375 112.984375 97.34375 112.96875 97.34375 C 112.949219 97.34375 112.699219 97.253906 112.40625 97.140625 C 109.210938 95.9375 105.464844 97.929688 107.527344 99.734375 C 108.828125 100.875 110.734375 101.140625 112.855469 100.472656 C 112.988281 100.429688 113 100.507812 113.003906 101.332031 L 113.003906 102.234375 L 113.894531 102.777344 C 114.382812 103.078125 114.816406 103.335938 114.851562 103.351562 C 114.886719 103.367188 114.917969 101.664062 114.917969 99.566406 L 114.917969 95.753906 L 119.082031 95.753906 L 119.101562 98.992188 L 119.125 102.230469 L 120.042969 102.796875 L 120.957031 103.367188 L 120.980469 99.558594 L 121 95.753906 L 126.730469 95.773438 L 132.457031 95.796875 L 132.484375 96.4375 L 132.507812 97.078125 L 132.878906 97.296875 C 133.339844 97.570312 133.355469 97.550781 132.6875 97.554688 C 132.128906 97.558594 131.710938 97.695312 131.15625 98.058594 C 130.949219 98.195312 130.921875 98.195312 130.484375 97.984375 C 127.945312 96.78125 124.554688 97.382812 124.554688 99.039062 C 124.558594 100.101562 126.167969 101.730469 128.363281 102.886719 L 128.769531 103.101562 L 129.199219 102.933594 C 129.433594 102.839844 129.636719 102.753906 129.652344 102.738281 C 129.667969 102.722656 129.421875 102.570312 129.109375 102.394531 C 127.625 101.574219 126.464844 100.609375 126.203125 99.976562 C 125.667969 98.695312 127.652344 98.0625 129.980469 98.777344 L 130.25 98.863281 L 129.875 99.292969 C 129.667969 99.53125 129.511719 99.757812 129.523438 99.796875 C 129.539062 99.847656 130.84375 100.351562 130.960938 100.351562 C 130.96875 100.351562 131 100.21875 131.027344 100.054688 C 131.238281 98.738281 133.175781 97.828125 134.765625 98.292969 C 136.238281 98.722656 136.035156 100.007812 134.28125 101.363281 C 133.773438 101.757812 133.757812 101.855469 134.171875 102 C 134.824219 102.226562 135.113281 102.15625 135.6875 101.613281 C 137.292969 100.109375 136.996094 98.730469 134.902344 97.972656 L 134.375 97.78125 L 134.351562 96.765625 L 134.328125 95.753906 L 137.332031 95.753906 L 137.332031 94.667969 L 134.027344 94.667969 L 133.921875 94.3125 C 133.269531 92.09375 131.335938 90.734375 128.828125 90.734375 C 127.765625 90.734375 127.789062 90.699219 128.371094 91.445312 L 128.820312 92.027344 L 129.597656 92.042969 C 131.363281 92.074219 133.226562 93.359375 133.246094 94.5625 C 133.25 94.644531 130.183594 94.667969 118.183594 94.667969 L 103.117188 94.667969 L 102.78125 94.3125 C 101.738281 93.214844 101.679688 92.347656 102.609375 91.816406 C 103.039062 91.566406 104.410156 91.546875 104.960938 91.777344 C 105.265625 91.90625 105.285156 91.902344 105.472656 91.726562 L 105.667969 91.542969 L 105.484375 91.34375 C 104.835938 90.652344 102.828125 90.320312 101.800781 90.730469 M 69.332031 92.1875 C 70.335938 92.421875 71.675781 92.933594 72.582031 93.429688 C 73.179688 93.753906 74.417969 94.570312 74.417969 94.636719 C 74.417969 94.652344 72.074219 94.667969 69.210938 94.667969 L 64.007812 94.667969 L 63.910156 94.488281 C 62.875 92.546875 65.710938 91.34375 69.332031 92.1875 M 75 97.21875 L 75 98.679688 L 71.332031 98.679688 L 71.332031 95.753906 L 75 95.753906 L 75 97.21875 M 112.125 97.933594 C 113.03125 98.0625 113 98.039062 113 98.589844 L 113 99.078125 L 112.4375 99.328125 C 110.746094 100.089844 109.261719 100.203125 108.578125 99.625 C 107.90625 99.058594 108.625 98.273438 110.042969 98.019531 C 111.117188 97.828125 111.332031 97.816406 112.125 97.933594 M 87.464844 98.644531 C 88.511719 99.324219 88.40625 100.273438 87.207031 100.980469 C 85.285156 102.117188 81.714844 101.796875 81.714844 100.488281 C 81.714844 99.660156 82.671875 99.125 84.851562 98.726562 C 86.828125 98.363281 87.023438 98.359375 87.464844 98.644531 "/>
<path style=" stroke:none;fill-rule:evenodd;fill:rgb(95.294118%,91.764706%,10.980392%);fill-opacity:1;" d="M 22.417969 28.601562 L 22.417969 35.457031 L 8 35.457031 L 8 108.632812 L 22.417969 108.632812 L 22.417969 122.347656 L 175.5 122.347656 L 175.5 108.632812 L 189.917969 108.632812 L 189.917969 35.457031 L 175.5 35.457031 L 175.5 21.742188 L 22.417969 21.742188 L 22.417969 28.601562 M 171.917969 32.28125 L 171.917969 39.136719 L 186.332031 39.136719 L 186.332031 104.953125 L 171.917969 104.953125 L 171.917969 118.667969 L 25.917969 118.667969 L 25.917969 104.953125 L 11.582031 104.953125 L 11.582031 39.136719 L 25.917969 39.136719 L 25.917969 25.421875 L 171.917969 25.421875 L 171.917969 32.28125 M 29.25 35.792969 L 29.25 42.648438 L 14.832031 42.648438 L 14.832031 101.441406 L 29.25 101.441406 L 29.25 115.15625 L 168.667969 115.15625 L 168.667969 101.441406 L 183.082031 101.441406 L 183.082031 42.648438 L 168.667969 42.648438 L 168.667969 28.933594 L 29.25 28.933594 L 29.25 35.792969 M 30.332031 29.769531 L 30.332031 30.023438 L 167.582031 30.023438 L 167.601562 36.859375 L 167.625 43.695312 L 174.8125 43.71875 L 182 43.738281 L 181.980469 72.066406 L 181.957031 100.394531 L 174.769531 100.417969 L 167.582031 100.4375 L 167.582031 114.066406 L 30.332031 114.066406 L 30.332031 100.4375 L 23.144531 100.417969 L 15.957031 100.394531 L 15.917969 43.738281 L 23.105469 43.71875 L 30.292969 43.695312 L 30.3125 36.859375 L 30.335938 30.023438 L 30.042969 30.023438 C 29.773438 30.023438 29.75 30.003906 29.75 29.769531 C 29.75 29.539062 29.773438 29.519531 30.042969 29.519531 C 30.308594 29.519531 30.332031 29.539062 30.332031 29.769531 "/>
<path style=" stroke:none;fill-rule:evenodd;fill:rgb(92.54902%,14.117647%,17.254902%);fill-opacity:1;" d="M 29.832031 29.769531 C 29.832031 29.984375 29.867188 30.023438 30.042969 30.023438 C 30.21875 30.023438 30.25 29.984375 30.25 29.769531 C 30.25 29.558594 30.21875 29.519531 30.042969 29.519531 C 29.867188 29.519531 29.832031 29.558594 29.832031 29.769531 M 30.332031 36.878906 L 30.332031 43.738281 L 15.917969 43.738281 L 15.917969 100.351562 L 30.332031 100.351562 L 30.332031 114.066406 L 167.582031 114.066406 L 167.582031 100.351562 L 181.917969 100.351562 L 181.917969 43.738281 L 167.582031 43.738281 L 167.582031 30.023438 L 30.332031 30.023438 L 30.332031 36.878906 M 137.007812 45.457031 C 138.078125 46.003906 138.1875 47.101562 137.296875 48.457031 C 136.507812 49.660156 136.4375 50.039062 136.941406 50.347656 C 137.34375 50.59375 137.375 50.578125 138.324219 49.644531 C 139.355469 48.632812 139.472656 48.558594 140.082031 48.558594 C 141.785156 48.5625 142.382812 50.613281 140.964844 51.578125 C 140.449219 51.925781 140.097656 51.929688 139.121094 51.589844 C 137.746094 51.113281 137 51.277344 137 52.046875 C 137 52.390625 137.269531 52.65625 138.355469 53.359375 C 140.128906 54.515625 139.9375 56.789062 138.066406 56.78125 C 136.796875 56.773438 136.289062 55.953125 136.351562 54.007812 C 136.394531 52.707031 136.386719 52.675781 136.011719 52.5625 C 135.429688 52.382812 135.296875 52.515625 134.925781 53.671875 C 134.519531 54.945312 134.371094 55.207031 133.867188 55.523438 C 132.535156 56.375 131.011719 55.257812 131.449219 53.75 C 131.695312 52.894531 132.082031 52.617188 133.402344 52.335938 C 134.617188 52.078125 134.75 52.007812 134.75 51.617188 C 134.75 51.023438 134.667969 50.984375 133.40625 50.972656 C 132.570312 50.960938 132.214844 50.925781 131.988281 50.820312 C 130.398438 50.097656 130.460938 47.941406 132.078125 47.59375 C 133.003906 47.394531 133.519531 47.726562 134.21875 48.976562 C 134.800781 50.011719 134.96875 50.164062 135.363281 50.015625 C 135.742188 49.871094 135.714844 49.65625 135.195312 48.5625 C 134.761719 47.652344 134.710938 47.488281 134.714844 47.03125 C 134.726562 45.753906 135.945312 44.917969 137.007812 45.457031 M 42.496094 51.011719 C 47.347656 51.4375 50.433594 52.144531 52.953125 53.40625 C 55.746094 54.804688 57.007812 57.085938 55.742188 58.445312 C 55.644531 58.550781 55.582031 58.652344 55.601562 58.671875 C 55.621094 58.691406 65.789062 58.699219 78.195312 58.6875 L 100.75 58.664062 L 97.378906 56.753906 C 94.730469 55.257812 93.964844 54.859375 93.816406 54.902344 C 93.585938 54.96875 90.519531 55.945312 89.457031 56.289062 C 89.046875 56.421875 88.683594 56.53125 88.652344 56.53125 C 88.582031 56.53125 87.398438 54.597656 87.445312 54.554688 C 87.460938 54.535156 88.503906 54.105469 89.753906 53.601562 L 92.027344 52.683594 L 94.324219 52.683594 L 95.683594 53.277344 C 96.429688 53.605469 97.324219 53.996094 97.667969 54.148438 C 98.011719 54.300781 99.492188 54.953125 100.957031 55.597656 C 102.425781 56.238281 104.617188 57.203125 105.832031 57.738281 L 108.042969 58.707031 L 114.167969 58.707031 L 114.167969 60.714844 L 110.417969 60.714844 L 110.417969 65.039062 L 110.769531 65.273438 C 116.015625 68.738281 115.703125 77.15625 110.195312 80.757812 C 107.097656 82.785156 102.164062 82.6875 101.175781 80.578125 C 100.542969 79.222656 101.800781 78.152344 104.253906 77.953125 C 108.496094 77.613281 109.175781 71.273438 105.0625 70.417969 C 103.300781 70.050781 101.332031 71.824219 101.332031 73.777344 C 101.332031 74.890625 100.003906 77.792969 98.960938 78.964844 C 93.617188 84.957031 84.835938 82.691406 82.992188 74.847656 C 82.703125 73.625 82.914062 71.285156 83.433594 69.957031 C 85.40625 64.90625 91.023438 62.632812 95.8125 64.945312 C 97.175781 65.605469 97.402344 66.148438 96.804688 67.34375 C 96.21875 68.523438 95.839844 68.679688 94.261719 68.398438 C 92.578125 68.101562 91.550781 68.355469 90.675781 69.28125 C 88.179688 71.929688 90.570312 76.621094 93.851562 75.511719 C 94.980469 75.128906 95.585938 74.480469 96.152344 73.046875 C 96.394531 72.433594 96.503906 72.039062 96.859375 70.492188 C 97.371094 68.261719 99.832031 65.191406 101.738281 64.398438 L 102 64.289062 L 102 60.714844 L 81.125 60.753906 L 81.105469 70.6875 L 81.082031 80.617188 L 82.75 80.617188 L 82.75 82.375 L 76.9375 82.351562 L 71.125 82.332031 L 71.101562 81.472656 L 71.078125 80.617188 L 72.75 80.617188 L 72.75 66.734375 L 71.4375 66.738281 C 69.648438 66.742188 68.574219 67.167969 67.226562 68.410156 C 64.160156 71.230469 64.46875 75.148438 68.042969 78.734375 L 68.792969 79.488281 L 68.738281 80.925781 L 68.347656 81.117188 C 63.492188 83.5 57.453125 78.113281 58.464844 72.296875 C 59.199219 68.058594 61.324219 65.605469 65.207031 64.507812 L 66.042969 64.269531 L 69.394531 64.246094 L 72.75 64.21875 L 72.75 60.714844 L 56.25 60.714844 L 56.25 80.617188 L 57.917969 80.617188 L 57.917969 82.375 L 52.105469 82.351562 L 46.292969 82.332031 L 46.269531 81.472656 L 46.242188 80.617188 L 47.917969 80.617188 L 47.917969 79.070312 C 47.917969 78.21875 47.894531 77.523438 47.871094 77.523438 C 47.84375 77.523438 47.722656 77.578125 47.59375 77.640625 C 46.773438 78.070312 44.648438 78.582031 42.507812 78.867188 C 36.644531 79.65625 32.601562 74.914062 35.019531 70.082031 C 35.539062 69.039062 36.179688 68.269531 37.328125 67.296875 C 37.820312 66.886719 37.636719 66.824219 35.804688 66.800781 L 34.207031 66.777344 L 34.183594 65.5 L 34.164062 64.226562 L 46.585938 64.226562 L 46.566406 65.5 L 46.542969 66.777344 L 45.652344 66.832031 C 43.554688 66.960938 42.339844 68.324219 42.4375 70.429688 C 42.558594 73.023438 44.664062 74.089844 47.5625 73.03125 L 47.917969 72.902344 L 47.917969 60.714844 L 32 60.714844 L 32 80.535156 L 33.582031 80.535156 L 33.582031 82.207031 L 22 82.207031 L 22 80.535156 L 23.582031 80.535156 L 23.582031 60.714844 L 19.582031 60.714844 L 19.582031 58.707031 L 21.550781 58.707031 C 23.390625 58.707031 23.515625 58.695312 23.460938 58.558594 C 23.339844 58.257812 23.3125 57.132812 23.414062 56.691406 C 24.015625 54.105469 27.25 52.328125 33.125 51.355469 C 33.59375 51.277344 34.535156 51.175781 36.167969 51.019531 C 37.210938 50.917969 41.382812 50.917969 42.496094 51.011719 M 37.902344 53.6875 C 34.660156 54.101562 31.769531 56.292969 31.96875 58.183594 L 32.023438 58.707031 L 48.078125 58.707031 L 48.132812 58.492188 C 48.816406 55.769531 42.996094 53.035156 37.902344 53.6875 M 153.183594 58.042969 C 155.683594 58.554688 156.949219 60.539062 155.996094 62.453125 C 154.984375 64.484375 151.582031 64.230469 150.777344 62.0625 L 150.609375 61.613281 L 150.359375 62.019531 C 148.640625 64.828125 150.257812 67.488281 153.691406 67.488281 C 154.742188 67.488281 155.019531 67.582031 155.332031 68.046875 C 155.746094 68.652344 155.570312 69.929688 155.054688 70.0625 C 154.632812 70.171875 153.222656 70.953125 152.695312 71.367188 C 150.304688 73.246094 150.875 75.941406 153.832031 76.765625 C 155.847656 77.324219 157.695312 76.609375 160.007812 74.367188 L 160.917969 73.488281 L 160.917969 60.210938 L 158.5 60.210938 L 158.5 58.121094 L 159.707031 58.121094 C 160.457031 58.121094 160.917969 58.089844 160.917969 58.039062 C 160.917969 57.984375 162.375 57.953125 165.125 57.953125 C 167.789062 57.953125 169.332031 57.984375 169.332031 58.035156 C 169.332031 58.082031 169.796875 58.125 170.4375 58.140625 L 171.542969 58.164062 L 171.542969 60.171875 L 169.332031 60.21875 L 169.332031 70.621094 C 169.332031 77.507812 169.304688 81.03125 169.25 81.050781 C 168.894531 81.167969 170.6875 83.207031 171.296875 83.378906 C 172.976562 83.851562 174.410156 82.839844 174.632812 81.027344 C 174.921875 78.675781 175.851562 77.902344 177.210938 78.875 C 179.363281 80.414062 178.386719 84.65625 175.5 86.277344 C 172.078125 88.199219 168.304688 87.503906 165.804688 84.496094 C 164.996094 83.515625 164.675781 83.347656 163.667969 83.351562 C 160.210938 83.371094 160.066406 87.480469 163.511719 87.804688 C 166.433594 88.078125 166.09375 91.070312 163.140625 91.070312 C 159.898438 91.070312 157.003906 89.042969 156.449219 86.378906 C 156.007812 84.242188 157.695312 81.695312 160.386719 80.429688 L 160.917969 80.183594 L 160.914062 78.496094 L 160.910156 76.8125 L 160.652344 77.296875 C 158.726562 80.855469 152.371094 82.132812 147.875 79.871094 C 143.265625 77.546875 142.402344 72.480469 146.089844 69.433594 L 146.664062 68.960938 L 146.207031 68.550781 C 142.171875 64.941406 144.257812 59.292969 150.082031 58.050781 C 150.605469 57.941406 152.648438 57.933594 153.183594 58.042969 M 143.667969 59.710938 L 143.667969 60.714844 L 141.582031 60.714844 L 141.582031 80.617188 L 143.257812 80.617188 L 143.230469 81.472656 L 143.207031 82.332031 L 137.394531 82.351562 L 131.582031 82.375 L 131.582031 80.617188 L 133.25 80.617188 L 133.25 79.570312 C 133.25 78.996094 133.230469 78.527344 133.207031 78.527344 C 133.183594 78.527344 132.984375 78.660156 132.761719 78.820312 C 129.851562 80.914062 125.453125 80.800781 122.519531 78.550781 C 117.523438 74.722656 118.285156 67.210938 123.957031 64.375 C 126.648438 63.03125 130.34375 63.261719 132.65625 64.917969 C 132.867188 65.070312 133.089844 65.226562 133.144531 65.261719 C 133.226562 65.308594 133.25 64.839844 133.25 63.019531 L 133.25 60.714844 L 121.082031 60.714844 L 121.082031 58.707031 L 143.667969 58.707031 L 143.667969 59.710938 M 131.179688 71.113281 C 132.113281 72.984375 132.902344 74.511719 132.933594 74.511719 C 133.183594 74.511719 133.25 73.988281 133.25 71.984375 L 133.25 69.945312 L 133 69.550781 C 132.359375 68.535156 131.253906 67.847656 130.132812 67.761719 L 129.488281 67.714844 L 131.179688 71.113281 M 126.320312 70.125 C 125.171875 72.730469 126.75 75.980469 129.285156 76.242188 C 129.871094 76.304688 129.992188 76.664062 128.136719 72.886719 L 126.535156 69.628906 L 126.320312 70.125 M 104.515625 90.730469 C 104.773438 90.828125 105.148438 91.054688 105.347656 91.234375 L 105.707031 91.554688 L 105.507812 91.769531 C 105.316406 91.976562 105.304688 91.980469 105.050781 91.84375 C 104.664062 91.636719 103.269531 91.59375 102.800781 91.773438 C 101.746094 92.175781 101.734375 93.203125 102.765625 94.234375 L 103.199219 94.667969 L 133.261719 94.667969 L 133.203125 94.480469 C 132.753906 93.011719 131.292969 92.082031 129.433594 92.070312 L 128.792969 92.066406 L 128.304688 91.433594 C 127.726562 90.683594 127.738281 90.65625 128.734375 90.652344 C 131.242188 90.648438 133.320312 92.09375 133.953125 94.289062 L 134.050781 94.625 L 137.332031 94.671875 L 137.332031 95.835938 L 134.417969 95.835938 L 134.417969 97.742188 L 134.6875 97.839844 C 136.933594 98.675781 137.367188 99.957031 135.90625 101.453125 C 135.210938 102.167969 135.101562 102.21875 134.535156 102.117188 C 133.664062 101.953125 133.640625 101.800781 134.394531 101.230469 C 136.128906 99.917969 136.15625 98.566406 134.453125 98.265625 C 132.839844 97.988281 131.082031 98.9375 131.082031 100.09375 C 131.082031 100.410156 131.058594 100.410156 130.191406 100.128906 C 129.375 99.859375 129.351562 99.796875 129.882812 99.261719 L 130.261719 98.871094 L 129.695312 98.722656 C 127.378906 98.121094 125.5625 98.902344 126.332031 100.164062 C 126.714844 100.792969 128.050781 101.824219 129.230469 102.402344 C 129.855469 102.710938 129.855469 102.703125 129.28125 102.941406 L 128.8125 103.136719 L 128.351562 102.910156 C 126.257812 101.878906 124.503906 100.113281 124.5 99.035156 C 124.496094 97.34375 128.023438 96.726562 130.535156 97.980469 L 130.941406 98.183594 L 131.257812 97.976562 C 131.707031 97.675781 132.566406 97.402344 132.871094 97.460938 C 133.113281 97.507812 133.109375 97.5 132.773438 97.28125 L 132.417969 97.050781 L 132.417969 95.835938 L 121.082031 95.835938 L 121.082031 99.554688 C 121.082031 101.957031 121.054688 103.289062 121 103.324219 C 120.953125 103.351562 120.503906 103.121094 120 102.8125 L 119.082031 102.25 L 119.082031 95.835938 L 114.917969 95.835938 L 114.917969 99.601562 C 114.917969 101.671875 114.894531 103.363281 114.867188 103.363281 C 114.839844 103.363281 114.40625 103.117188 113.90625 102.816406 L 113 102.265625 L 113 100.441406 L 112.789062 100.519531 C 110.308594 101.46875 106.917969 100.351562 106.917969 98.589844 C 106.917969 97.113281 109.992188 96.25 112.3125 97.074219 L 113 97.320312 L 113 95.835938 L 103.667969 95.835938 L 103.667969 97.761719 L 101.378906 97.761719 C 98.867188 97.761719 98.667969 97.789062 98.667969 98.171875 C 98.667969 98.742188 99.371094 98.949219 100.410156 98.683594 C 101.992188 98.277344 102.925781 98.398438 103.867188 99.132812 C 105.179688 100.152344 104.851562 101.519531 103.121094 102.226562 L 102.664062 102.414062 L 103.871094 103.269531 C 105.34375 104.3125 105.28125 104.195312 104.578125 104.605469 L 103.992188 104.945312 L 102.808594 103.855469 L 101.625 102.769531 L 100.960938 102.816406 C 98.914062 102.953125 97.167969 101.871094 97.914062 100.917969 C 98.390625 100.3125 100.03125 100.472656 100.800781 101.195312 C 101.164062 101.542969 103.019531 100.945312 103.316406 100.382812 C 103.703125 99.660156 103.15625 99.488281 101.527344 99.816406 C 100.078125 100.105469 99.515625 99.996094 98.277344 99.164062 C 96.957031 98.277344 96.765625 97.175781 97.851562 96.707031 C 98.15625 96.578125 98.496094 96.550781 100.144531 96.523438 L 102.082031 96.492188 L 102.082031 95.835938 L 94.25 95.835938 L 94.25 99.609375 C 94.25 103.003906 94.238281 103.378906 94.117188 103.332031 C 94.046875 103.304688 93.617188 103.050781 93.160156 102.769531 L 92.332031 102.261719 L 92.332031 95.835938 L 87.332031 95.835938 L 87.332031 96.761719 C 87.332031 97.5625 87.351562 97.6875 87.480469 97.734375 C 90.148438 98.660156 90.738281 100.957031 88.597656 102.09375 C 85.574219 103.699219 80.691406 102.554688 80.363281 100.160156 C 80.199219 98.9375 81.375 98.066406 83.707031 97.679688 C 85.398438 97.402344 85.417969 97.390625 85.417969 96.492188 L 85.417969 95.835938 L 76.917969 95.835938 L 76.917969 103.433594 L 75.957031 102.839844 L 75 102.246094 L 75 99.769531 L 71.417969 99.769531 L 71.417969 100.3125 C 71.417969 101.308594 71.019531 101.417969 69.679688 100.773438 C 67.007812 99.488281 66.652344 98.597656 68.8125 98.597656 L 69.5 98.597656 L 69.5 95.835938 L 64.332031 95.835938 L 64.332031 99.601562 C 64.332031 101.679688 64.300781 103.363281 64.261719 103.363281 C 64.179688 103.363281 62.667969 102.453125 62.460938 102.277344 C 62.351562 102.1875 62.332031 101.746094 62.332031 99.007812 L 62.332031 95.84375 L 60.542969 95.796875 L 60.515625 95.230469 L 60.492188 94.667969 L 62.414062 94.667969 L 62.164062 94.269531 C 61.238281 92.808594 62.070312 91.578125 64.308594 91.109375 C 67.722656 90.394531 71.960938 91.621094 74.933594 94.1875 L 75.492188 94.667969 L 102.019531 94.667969 L 101.53125 94.140625 C 99.464844 91.914062 101.503906 89.578125 104.515625 90.730469 M 65.394531 92.121094 C 63.980469 92.464844 63.472656 93.269531 63.929688 94.4375 L 64.019531 94.667969 L 69.179688 94.667969 C 72.398438 94.667969 74.324219 94.636719 74.292969 94.585938 C 74.070312 94.222656 71.671875 92.941406 70.457031 92.535156 C 68.859375 92 66.636719 91.820312 65.394531 92.121094 M 71.417969 97.21875 L 71.417969 98.597656 L 75 98.597656 L 75 95.835938 L 71.417969 95.835938 L 71.417969 97.21875 M 110.292969 97.988281 C 108.882812 98.175781 107.957031 98.972656 108.507812 99.523438 C 109.136719 100.15625 110.714844 100.070312 112.363281 99.316406 L 113 99.023438 L 113 98.113281 L 112.472656 98.019531 C 111.96875 97.933594 110.828125 97.914062 110.292969 97.988281 M 86.582031 98.484375 C 84.1875 98.746094 82.351562 99.3125 81.941406 99.925781 C 80.644531 101.863281 85.929688 102.351562 87.804688 100.472656 C 88.628906 99.640625 87.835938 98.351562 86.582031 98.484375 "/>
<path style=" stroke:none;fill-rule:evenodd;fill:rgb(95.686275%,51.764706%,14.117647%);fill-opacity:1;" d="M 25.917969 32.28125 L 25.917969 39.136719 L 11.582031 39.136719 L 11.582031 104.953125 L 25.917969 104.953125 L 25.917969 118.667969 L 171.917969 118.667969 L 171.917969 104.953125 L 186.332031 104.953125 L 186.332031 39.136719 L 171.917969 39.136719 L 171.917969 25.421875 L 25.917969 25.421875 L 25.917969 32.28125 M 168.667969 35.792969 L 168.667969 42.648438 L 183.082031 42.648438 L 183.082031 101.441406 L 168.667969 101.441406 L 168.667969 115.15625 L 29.25 115.15625 L 29.25 101.441406 L 14.832031 101.441406 L 14.832031 42.648438 L 29.25 42.648438 L 29.25 28.933594 L 168.667969 28.933594 L 168.667969 35.792969 M 29.769531 29.769531 C 29.769531 29.933594 29.785156 30 29.808594 29.917969 C 29.828125 29.835938 29.828125 29.707031 29.808594 29.625 C 29.785156 29.542969 29.769531 29.609375 29.769531 29.769531 M 30.269531 29.769531 C 30.269531 29.933594 30.285156 30 30.308594 29.917969 C 30.328125 29.835938 30.328125 29.707031 30.308594 29.625 C 30.285156 29.542969 30.269531 29.609375 30.269531 29.769531 M 181.9375 72.023438 L 181.917969 100.351562 L 174.730469 100.375 L 167.542969 100.394531 L 174.730469 100.417969 C 180.421875 100.433594 181.929688 100.414062 181.960938 100.332031 C 181.984375 100.273438 181.992188 87.507812 181.980469 71.960938 L 181.957031 43.695312 L 181.9375 72.023438 M 134.6875 47.082031 C 134.6875 47.242188 134.703125 47.308594 134.722656 47.230469 C 134.746094 47.148438 134.746094 47.015625 134.722656 46.9375 C 134.703125 46.855469 134.6875 46.921875 134.6875 47.082031 M 138 49.96875 C 137.796875 50.175781 137.652344 50.34375 137.671875 50.34375 C 137.695312 50.34375 137.882812 50.175781 138.082031 49.96875 C 138.285156 49.761719 138.433594 49.589844 138.410156 49.589844 C 138.386719 49.589844 138.203125 49.761719 138 49.96875 M 131.082031 50.117188 C 131.082031 50.132812 131.203125 50.257812 131.355469 50.390625 L 131.625 50.636719 L 131.378906 50.363281 C 131.152344 50.113281 131.082031 50.054688 131.082031 50.117188 M 37.0625 50.988281 C 37.214844 51.007812 37.4375 51.007812 37.5625 50.988281 C 37.6875 50.96875 37.566406 50.953125 37.292969 50.957031 C 37.015625 50.957031 36.914062 50.972656 37.0625 50.988281 M 41.230469 50.988281 C 41.378906 51.007812 41.605469 51.007812 41.730469 50.988281 C 41.855469 50.96875 41.734375 50.953125 41.457031 50.957031 C 41.183594 50.957031 41.082031 50.972656 41.230469 50.988281 M 133.6875 50.988281 C 133.765625 51.007812 133.898438 51.007812 133.980469 50.988281 C 134.058594 50.964844 133.992188 50.949219 133.832031 50.949219 C 133.671875 50.949219 133.609375 50.964844 133.6875 50.988281 M 137 52.375 C 137 52.390625 137.121094 52.515625 137.269531 52.648438 L 137.542969 52.894531 L 137.296875 52.621094 C 137.070312 52.371094 137 52.3125 137 52.375 M 92.519531 52.746094 C 92.875 52.761719 93.457031 52.761719 93.8125 52.746094 C 94.167969 52.730469 93.878906 52.71875 93.167969 52.71875 C 92.457031 52.71875 92.164062 52.730469 92.519531 52.746094 M 136.355469 53.5625 C 136.355469 53.746094 136.371094 53.8125 136.390625 53.710938 C 136.410156 53.605469 136.410156 53.453125 136.390625 53.375 C 136.371094 53.292969 136.351562 53.378906 136.355469 53.5625 M 24.582031 54.652344 C 24.382812 54.859375 24.234375 55.027344 24.257812 55.027344 C 24.28125 55.027344 24.464844 54.859375 24.667969 54.652344 C 24.867188 54.445312 25.015625 54.273438 24.992188 54.273438 C 24.96875 54.273438 24.785156 54.445312 24.582031 54.652344 M 132.769531 55.835938 C 132.851562 55.859375 132.984375 55.859375 133.0625 55.835938 C 133.140625 55.816406 133.078125 55.800781 132.917969 55.800781 C 132.757812 55.800781 132.691406 55.816406 132.769531 55.835938 M 47.25 56.15625 C 47.40625 56.316406 47.550781 56.449219 47.574219 56.449219 C 47.597656 56.449219 47.488281 56.316406 47.332031 56.15625 C 47.179688 55.996094 47.03125 55.863281 47.007812 55.863281 C 46.984375 55.863281 47.09375 55.996094 47.25 56.15625 M 23.363281 57.492188 C 23.363281 57.863281 23.378906 58.003906 23.394531 57.804688 C 23.410156 57.609375 23.410156 57.308594 23.394531 57.136719 C 23.375 56.964844 23.363281 57.125 23.363281 57.492188 M 31.890625 58.203125 C 31.917969 58.457031 31.953125 58.679688 31.96875 58.699219 C 32.035156 58.773438 31.984375 58.070312 31.914062 57.914062 C 31.863281 57.804688 31.855469 57.90625 31.890625 58.203125 M 160.917969 58.023438 C 160.917969 58.09375 160.558594 58.125 159.6875 58.140625 L 158.457031 58.160156 L 159.660156 58.183594 C 160.773438 58.207031 161.140625 58.152344 160.972656 57.984375 C 160.941406 57.953125 160.917969 57.96875 160.917969 58.023438 M 169.25 58.058594 C 169.25 58.191406 169.359375 58.203125 170.375 58.203125 L 171.5 58.203125 L 171.5 60.125 L 170.394531 60.148438 L 169.292969 60.171875 L 169.289062 70.582031 L 169.289062 80.992188 L 169.335938 60.21875 L 170.4375 60.195312 L 171.542969 60.171875 L 171.542969 58.164062 L 170.460938 58.140625 C 169.726562 58.125 169.359375 58.082031 169.316406 58.015625 C 169.273438 57.945312 169.253906 57.957031 169.25 58.058594 M 143.617188 59.710938 C 143.617188 60.285156 143.628906 60.519531 143.644531 60.234375 C 143.660156 59.945312 143.660156 59.476562 143.644531 59.1875 C 143.628906 58.898438 143.617188 59.136719 143.617188 59.710938 M 159.6875 60.191406 L 160.914062 60.214844 L 160.960938 73.425781 L 160.960938 66.796875 L 160.957031 60.171875 L 158.457031 60.164062 L 159.6875 60.191406 M 23.625 70.625 C 23.625 76.097656 23.632812 78.324219 23.644531 75.570312 C 23.65625 72.820312 23.65625 68.34375 23.644531 65.621094 C 23.632812 62.898438 23.625 65.152344 23.625 70.625 M 31.957031 70.625 C 31.957031 76.097656 31.96875 78.324219 31.980469 75.570312 C 31.992188 72.820312 31.992188 68.34375 31.980469 65.621094 C 31.96875 62.898438 31.957031 65.152344 31.957031 70.625 M 102.035156 62.511719 C 102.035156 63.523438 102.046875 63.925781 102.0625 63.40625 C 102.078125 62.886719 102.078125 62.058594 102.0625 61.566406 C 102.046875 61.074219 102.035156 61.5 102.035156 62.511719 M 110.371094 62.847656 C 110.371094 64.042969 110.382812 64.519531 110.394531 63.90625 C 110.410156 63.296875 110.410156 62.316406 110.394531 61.734375 C 110.382812 61.148438 110.371094 61.652344 110.371094 62.847656 M 46.519531 65.453125 L 46.5 66.722656 L 46.230469 66.757812 L 45.957031 66.792969 L 46.230469 66.804688 C 46.589844 66.824219 46.59375 66.808594 46.5625 65.394531 L 46.535156 64.183594 L 46.519531 65.453125 M 85.496094 66.714844 L 85.207031 67.027344 L 85.519531 66.738281 C 85.8125 66.472656 85.871094 66.398438 85.808594 66.398438 C 85.792969 66.398438 85.652344 66.542969 85.496094 66.714844 M 35.023438 66.796875 C 35.472656 66.8125 36.1875 66.8125 36.609375 66.796875 C 37.03125 66.78125 36.664062 66.769531 35.792969 66.769531 C 34.921875 66.769531 34.574219 66.78125 35.023438 66.796875 M 153.308594 67.546875 C 153.457031 67.566406 153.722656 67.566406 153.894531 67.550781 C 154.066406 67.53125 153.945312 67.515625 153.625 67.515625 C 153.304688 67.515625 153.164062 67.527344 153.308594 67.546875 M 36.457031 68.09375 L 35.957031 68.617188 L 36.480469 68.117188 C 36.964844 67.652344 37.039062 67.570312 36.976562 67.570312 C 36.964844 67.570312 36.730469 67.804688 36.457031 68.09375 M 129.6875 67.710938 C 129.765625 67.734375 129.898438 67.734375 129.980469 67.710938 C 130.058594 67.691406 129.992188 67.675781 129.832031 67.675781 C 129.671875 67.675781 129.609375 67.691406 129.6875 67.710938 M 66.871094 68.679688 L 66.625 68.953125 L 66.894531 68.707031 C 67.148438 68.476562 67.203125 68.40625 67.140625 68.40625 C 67.125 68.40625 67.003906 68.53125 66.871094 68.679688 M 90.660156 69.222656 L 90.375 69.535156 L 90.6875 69.25 C 90.859375 69.089844 91 68.949219 91 68.933594 C 91 68.871094 90.929688 68.929688 90.660156 69.222656 M 145.578125 69.890625 L 145.292969 70.207031 L 145.605469 69.917969 C 145.894531 69.648438 145.953125 69.578125 145.890625 69.578125 C 145.878906 69.578125 145.738281 69.71875 145.578125 69.890625 M 42.359375 70.246094 C 42.359375 70.546875 42.375 70.667969 42.394531 70.519531 C 42.410156 70.371094 42.410156 70.125 42.394531 69.976562 C 42.375 69.824219 42.359375 69.949219 42.359375 70.246094 M 119.195312 71.878906 C 119.199219 72.339844 119.210938 72.515625 119.226562 72.273438 C 119.246094 72.03125 119.246094 71.652344 119.226562 71.4375 C 119.210938 71.21875 119.195312 71.417969 119.195312 71.878906 M 114.523438 72.171875 C 114.523438 72.378906 114.539062 72.460938 114.558594 72.359375 C 114.578125 72.253906 114.578125 72.085938 114.558594 71.984375 C 114.539062 71.878906 114.523438 71.964844 114.523438 72.171875 M 82.863281 73.175781 C 82.863281 73.519531 82.875 73.660156 82.894531 73.488281 C 82.910156 73.316406 82.910156 73.03125 82.894531 72.859375 C 82.875 72.6875 82.863281 72.828125 82.863281 73.175781 M 114.523438 73.339844 C 114.523438 73.546875 114.539062 73.632812 114.558594 73.53125 C 114.578125 73.425781 114.578125 73.257812 114.558594 73.152344 C 114.539062 73.050781 114.523438 73.132812 114.523438 73.339844 M 143.777344 74.136719 C 143.777344 74.410156 143.792969 74.515625 143.808594 74.363281 C 143.828125 74.214844 143.828125 73.988281 143.808594 73.863281 C 143.789062 73.738281 143.777344 73.859375 143.777344 74.136719 M 160.207031 74.199219 L 159.707031 74.722656 L 160.230469 74.222656 C 160.515625 73.949219 160.75 73.710938 160.75 73.699219 C 160.75 73.636719 160.667969 73.714844 160.207031 74.199219 M 90.5 74.539062 C 90.5 74.554688 90.621094 74.675781 90.769531 74.808594 L 91.042969 75.054688 L 90.796875 74.785156 C 90.570312 74.53125 90.5 74.472656 90.5 74.539062 M 126.917969 74.957031 C 126.917969 74.972656 127.039062 75.09375 127.1875 75.226562 L 127.457031 75.472656 L 127.214844 75.203125 C 126.984375 74.949219 126.917969 74.890625 126.917969 74.957031 M 154.980469 76.996094 C 155.082031 77.015625 155.25 77.015625 155.355469 76.996094 C 155.457031 76.976562 155.371094 76.960938 155.167969 76.960938 C 154.960938 76.960938 154.875 76.976562 154.980469 76.996094 M 104.105469 78 C 104.230469 78.019531 104.417969 78.019531 104.523438 78 C 104.625 77.980469 104.519531 77.964844 104.292969 77.964844 C 104.0625 77.964844 103.976562 77.980469 104.105469 78 M 41.148438 79.003906 C 41.25 79.023438 41.402344 79.023438 41.480469 79.003906 C 41.558594 78.980469 41.476562 78.964844 41.292969 78.964844 C 41.109375 78.964844 41.042969 78.984375 41.148438 79.003906 M 68.503906 79.242188 C 68.664062 79.429688 68.808594 79.570312 68.828125 79.554688 C 68.851562 79.539062 68.722656 79.382812 68.542969 79.214844 L 68.21875 78.902344 L 68.503906 79.242188 M 98.289062 79.632812 L 97.792969 80.15625 L 98.3125 79.65625 C 98.796875 79.195312 98.871094 79.113281 98.808594 79.113281 C 98.796875 79.113281 98.5625 79.347656 98.289062 79.632812 M 85.542969 79.695312 C 85.8125 79.972656 86.054688 80.199219 86.078125 80.199219 C 86.101562 80.199219 85.898438 79.972656 85.625 79.695312 C 85.351562 79.421875 85.113281 79.195312 85.089844 79.195312 C 85.066406 79.195312 85.269531 79.421875 85.542969 79.695312 M 101.019531 79.988281 C 101.023438 80.171875 101.039062 80.238281 101.058594 80.136719 C 101.078125 80.03125 101.078125 79.878906 101.058594 79.800781 C 101.035156 79.722656 101.019531 79.804688 101.019531 79.988281 M 127.5625 80.34375 C 127.710938 80.363281 127.953125 80.363281 128.105469 80.34375 C 128.253906 80.324219 128.132812 80.308594 127.832031 80.308594 C 127.535156 80.308594 127.414062 80.324219 127.5625 80.34375 M 68.6875 80.660156 C 68.6875 80.84375 68.707031 80.910156 68.726562 80.804688 C 68.746094 80.699219 68.746094 80.550781 68.722656 80.46875 C 68.703125 80.390625 68.6875 80.476562 68.6875 80.660156 M 46.285156 81.453125 L 46.292969 82.332031 L 52.105469 82.351562 L 57.917969 82.375 L 57.898438 81.476562 L 57.882812 80.574219 L 57.855469 81.433594 L 57.828125 82.289062 L 46.339844 82.289062 L 46.308594 81.433594 L 46.28125 80.574219 L 46.285156 81.453125 M 71.121094 81.453125 L 71.125 82.332031 L 82.75 82.332031 L 76.960938 82.3125 L 71.171875 82.289062 L 71.144531 81.433594 L 71.117188 80.574219 L 71.121094 81.453125 M 143.183594 81.433594 L 143.167969 82.289062 L 137.355469 82.3125 L 131.542969 82.332031 L 137.355469 82.351562 C 142.121094 82.371094 143.179688 82.351562 143.214844 82.261719 C 143.238281 82.203125 143.242188 81.796875 143.230469 81.363281 L 143.203125 80.574219 L 143.183594 81.433594 M 152.269531 81.011719 C 152.488281 81.03125 152.84375 81.03125 153.0625 81.011719 C 153.28125 80.996094 153.101562 80.980469 152.667969 80.980469 C 152.230469 80.980469 152.054688 80.996094 152.269531 81.011719 M 174.601562 81.371094 C 174.601562 81.53125 174.621094 81.597656 174.640625 81.515625 C 174.660156 81.4375 174.660156 81.304688 174.640625 81.222656 C 174.621094 81.144531 174.601562 81.207031 174.601562 81.371094 M 178.273438 81.871094 C 178.273438 82.078125 178.289062 82.164062 178.308594 82.058594 C 178.328125 81.957031 178.328125 81.785156 178.308594 81.683594 C 178.289062 81.578125 178.273438 81.664062 178.273438 81.871094 M 91.605469 82.351562 C 91.777344 82.367188 92.058594 82.367188 92.230469 82.351562 C 92.402344 82.332031 92.261719 82.316406 91.917969 82.316406 C 91.574219 82.316406 91.433594 82.332031 91.605469 82.351562 M 170.167969 82.652344 C 170.167969 82.664062 170.289062 82.785156 170.4375 82.921875 L 170.707031 83.167969 L 170.464844 82.894531 C 170.234375 82.640625 170.167969 82.585938 170.167969 82.652344 M 160.9375 85.550781 C 160.9375 85.710938 160.953125 85.777344 160.972656 85.699219 C 160.996094 85.617188 160.996094 85.484375 160.972656 85.40625 C 160.953125 85.324219 160.9375 85.390625 160.9375 85.550781 M 156.355469 85.675781 C 156.355469 85.859375 156.371094 85.925781 156.390625 85.820312 C 156.410156 85.71875 156.410156 85.566406 156.390625 85.488281 C 156.371094 85.40625 156.351562 85.492188 156.355469 85.675781 M 170.730469 87.28125 C 170.835938 87.304688 170.984375 87.300781 171.0625 87.28125 C 171.144531 87.261719 171.058594 87.246094 170.875 87.246094 C 170.691406 87.246094 170.625 87.261719 170.730469 87.28125 M 171.9375 87.28125 C 172.015625 87.300781 172.148438 87.300781 172.230469 87.28125 C 172.308594 87.261719 172.242188 87.242188 172.082031 87.242188 C 171.921875 87.242188 171.859375 87.261719 171.9375 87.28125 M 102.816406 90.546875 C 103.011719 90.5625 103.308594 90.5625 103.480469 90.546875 C 103.652344 90.527344 103.492188 90.515625 103.125 90.515625 C 102.757812 90.515625 102.617188 90.527344 102.816406 90.546875 M 128.398438 90.714844 C 128.640625 90.730469 129.015625 90.730469 129.230469 90.714844 C 129.449219 90.695312 129.25 90.683594 128.792969 90.683594 C 128.332031 90.683594 128.15625 90.699219 128.398438 90.714844 M 65.519531 90.960938 C 65.601562 90.980469 65.734375 90.980469 65.8125 90.960938 C 65.890625 90.941406 65.828125 90.921875 65.667969 90.921875 C 65.507812 90.921875 65.441406 90.941406 65.519531 90.960938 M 67.019531 90.960938 C 67.101562 90.980469 67.234375 90.980469 67.3125 90.960938 C 67.390625 90.941406 67.328125 90.921875 67.167969 90.921875 C 67.007812 90.921875 66.941406 90.941406 67.019531 90.960938 M 103.394531 91.632812 C 103.5 91.652344 103.667969 91.652344 103.769531 91.632812 C 103.875 91.613281 103.789062 91.59375 103.582031 91.59375 C 103.378906 91.59375 103.292969 91.613281 103.394531 91.632812 M 66.644531 91.96875 C 66.886719 91.984375 67.28125 91.984375 67.519531 91.96875 C 67.761719 91.953125 67.566406 91.9375 67.082031 91.9375 C 66.601562 91.9375 66.40625 91.953125 66.644531 91.96875 M 132.417969 91.933594 C 132.417969 91.949219 132.539062 92.070312 132.6875 92.203125 L 132.957031 92.449219 L 132.714844 92.179688 C 132.484375 91.925781 132.417969 91.867188 132.417969 91.933594 M 129.394531 92.050781 C 129.5 92.070312 129.667969 92.070312 129.769531 92.050781 C 129.875 92.03125 129.789062 92.011719 129.582031 92.011719 C 129.378906 92.011719 129.292969 92.03125 129.394531 92.050781 M 100.605469 92.367188 C 100.605469 92.550781 100.621094 92.617188 100.640625 92.511719 C 100.660156 92.410156 100.660156 92.257812 100.640625 92.175781 C 100.621094 92.097656 100.601562 92.183594 100.605469 92.367188 M 132.332031 93.121094 C 132.488281 93.28125 132.636719 93.414062 132.65625 93.414062 C 132.679688 93.414062 132.570312 93.28125 132.417969 93.121094 C 132.261719 92.957031 132.113281 92.828125 132.09375 92.828125 C 132.070312 92.828125 132.179688 92.957031 132.332031 93.121094 M 74.917969 94.191406 C 74.917969 94.207031 75.039062 94.328125 75.1875 94.460938 L 75.457031 94.707031 L 75.214844 94.4375 C 74.984375 94.183594 74.917969 94.125 74.917969 94.191406 M 60.535156 95.25 L 60.542969 95.796875 L 62.332031 95.84375 L 62.378906 102.234375 L 62.398438 98.996094 L 62.417969 95.753906 L 60.589844 95.753906 L 60.558594 95.230469 L 60.53125 94.707031 L 60.535156 95.25 M 64.289062 95.859375 C 64.265625 95.914062 64.257812 97.636719 64.269531 99.683594 L 64.292969 103.40625 L 64.3125 99.621094 L 64.332031 95.839844 L 69.542969 95.792969 L 66.933594 95.773438 C 64.910156 95.757812 64.320312 95.777344 64.289062 95.859375 M 71.332031 97.21875 L 71.332031 98.679688 L 75.042969 98.640625 L 71.417969 98.59375 L 71.417969 95.839844 L 75.042969 95.792969 L 71.332031 95.753906 L 71.332031 97.21875 M 79.019531 95.816406 C 80.199219 95.828125 82.132812 95.828125 83.3125 95.816406 C 84.492188 95.804688 83.527344 95.792969 81.167969 95.792969 C 78.804688 95.792969 77.839844 95.804688 79.019531 95.816406 M 88.5625 95.816406 C 89.261719 95.832031 90.40625 95.832031 91.105469 95.816406 C 91.804688 95.800781 91.230469 95.789062 89.832031 95.789062 C 88.433594 95.789062 87.863281 95.800781 88.5625 95.816406 M 98.140625 95.816406 L 102.074219 95.839844 L 102.105469 96.195312 L 102.136719 96.546875 L 102.152344 96.152344 L 102.167969 95.753906 L 94.207031 95.792969 L 98.140625 95.816406 M 105.980469 95.816406 C 107.273438 95.828125 109.390625 95.828125 110.6875 95.816406 C 111.984375 95.804688 110.921875 95.792969 108.332031 95.792969 C 105.742188 95.792969 104.683594 95.804688 105.980469 95.816406 M 115.9375 95.816406 C 116.523438 95.832031 117.476562 95.832031 118.0625 95.816406 C 118.648438 95.800781 118.167969 95.789062 117 95.789062 C 115.832031 95.789062 115.351562 95.800781 115.9375 95.816406 M 121.019531 99.539062 L 121.039062 103.324219 L 121.0625 99.578125 L 121.085938 95.835938 L 132.410156 95.835938 L 132.4375 96.445312 L 132.46875 97.050781 L 132.464844 96.421875 L 132.457031 95.796875 L 126.730469 95.773438 L 121 95.753906 L 121.019531 99.539062 M 134.351562 96.769531 C 134.367188 97.515625 134.402344 97.792969 134.480469 97.808594 C 134.539062 97.824219 134.550781 97.8125 134.503906 97.789062 C 134.449219 97.765625 134.417969 97.359375 134.417969 96.792969 L 134.417969 95.839844 L 135.894531 95.816406 L 137.375 95.792969 L 134.328125 95.753906 L 134.351562 96.769531 M 127.1875 97.320312 C 127.3125 97.339844 127.519531 97.339844 127.644531 97.320312 C 127.773438 97.300781 127.667969 97.285156 127.417969 97.285156 C 127.164062 97.285156 127.0625 97.300781 127.1875 97.320312 M 132.867188 97.328125 C 132.90625 97.394531 132.847656 97.429688 132.691406 97.4375 C 132.480469 97.449219 132.476562 97.453125 132.65625 97.488281 C 132.886719 97.53125 133.070312 97.394531 132.910156 97.296875 C 132.84375 97.257812 132.828125 97.265625 132.867188 97.328125 M 111.105469 97.902344 C 111.230469 97.921875 111.4375 97.921875 111.5625 97.902344 C 111.6875 97.886719 111.585938 97.871094 111.332031 97.871094 C 111.082031 97.871094 110.976562 97.886719 111.105469 97.902344 M 101.644531 98.492188 C 101.796875 98.507812 102.039062 98.507812 102.1875 98.492188 C 102.335938 98.472656 102.214844 98.457031 101.917969 98.457031 C 101.617188 98.457031 101.496094 98.472656 101.644531 98.492188 M 127.8125 98.488281 C 127.914062 98.507812 128.085938 98.507812 128.1875 98.488281 C 128.289062 98.46875 128.207031 98.453125 128 98.453125 C 127.792969 98.453125 127.710938 98.46875 127.8125 98.488281 M 68.355469 98.660156 C 68.570312 98.675781 68.929688 98.675781 69.144531 98.660156 C 69.363281 98.640625 69.183594 98.628906 68.75 98.628906 C 68.316406 98.628906 68.136719 98.640625 68.355469 98.660156 M 80.785156 98.867188 L 80.542969 99.140625 L 80.8125 98.894531 C 80.960938 98.761719 81.082031 98.636719 81.082031 98.625 C 81.082031 98.558594 81.015625 98.617188 80.785156 98.867188 M 71.367188 99.796875 C 71.34375 99.859375 71.339844 100.132812 71.355469 100.40625 L 71.386719 100.898438 L 71.402344 100.335938 L 71.417969 99.769531 L 75.042969 99.722656 L 73.226562 99.703125 C 71.757812 99.6875 71.402344 99.707031 71.367188 99.796875 M 100.230469 99.996094 C 100.335938 100.015625 100.484375 100.011719 100.5625 99.992188 C 100.644531 99.972656 100.558594 99.957031 100.375 99.957031 C 100.191406 99.957031 100.125 99.972656 100.230469 99.996094 M 109.605469 99.996094 C 109.730469 100.015625 109.9375 100.015625 110.0625 99.996094 C 110.1875 99.976562 110.085938 99.960938 109.832031 99.960938 C 109.582031 99.960938 109.476562 99.976562 109.605469 99.996094 M 19.5625 100.417969 C 21.546875 100.429688 24.789062 100.429688 26.769531 100.417969 C 28.753906 100.402344 27.132812 100.394531 23.167969 100.394531 C 19.203125 100.394531 17.578125 100.402344 19.5625 100.417969 M 125.496094 100.875 C 125.84375 101.246094 125.917969 101.3125 125.917969 101.25 C 125.917969 101.234375 125.738281 101.058594 125.519531 100.851562 L 125.125 100.480469 L 125.496094 100.875 M 110.3125 100.914062 C 110.460938 100.933594 110.703125 100.933594 110.855469 100.914062 C 111.003906 100.898438 110.882812 100.882812 110.582031 100.882812 C 110.285156 100.882812 110.164062 100.898438 110.3125 100.914062 M 80.75 101.132812 C 80.75 101.148438 80.871094 101.269531 81.019531 101.402344 L 81.292969 101.648438 L 81.046875 101.378906 C 80.820312 101.125 80.75 101.066406 80.75 101.132812 M 135.785156 101.546875 L 135.542969 101.816406 L 135.8125 101.570312 C 136.066406 101.34375 136.121094 101.273438 136.058594 101.273438 C 136.042969 101.273438 135.921875 101.394531 135.785156 101.546875 M 100.230469 102.835938 C 100.332031 102.859375 100.5 102.859375 100.605469 102.835938 C 100.707031 102.816406 100.621094 102.800781 100.417969 102.800781 C 100.210938 102.800781 100.125 102.816406 100.230469 102.835938 M 101.667969 102.804688 C 101.667969 102.820312 101.789062 102.941406 101.9375 103.078125 L 102.207031 103.324219 L 101.964844 103.050781 C 101.734375 102.796875 101.667969 102.742188 101.667969 102.804688 M 102.75 103.824219 C 102.90625 103.984375 103.050781 104.117188 103.074219 104.117188 C 103.097656 104.117188 102.988281 103.984375 102.832031 103.824219 C 102.679688 103.664062 102.53125 103.53125 102.507812 103.53125 C 102.484375 103.53125 102.59375 103.664062 102.75 103.824219 M 103.417969 104.394531 C 103.417969 104.40625 103.539062 104.53125 103.6875 104.664062 L 103.957031 104.910156 L 103.714844 104.640625 C 103.484375 104.386719 103.417969 104.328125 103.417969 104.394531 "/>
<path style=" stroke:none;fill-rule:evenodd;fill:rgb(14.117647%,10.980392%,14.117647%);fill-opacity:1;" d="M 184.664062 19.6875 C 182.578125 20.148438 180.644531 21.8125 180.132812 23.582031 C 179.722656 25.011719 179.640625 26.082031 179.875 26.933594 C 180.144531 27.894531 180.210938 28.078125 180.523438 28.703125 C 181.226562 30.117188 182.753906 31.289062 184.484375 31.746094 C 185.046875 31.894531 186.722656 31.894531 187.332031 31.742188 C 188.023438 31.574219 188.820312 31.222656 189.410156 30.828125 C 189.800781 30.566406 190.917969 29.472656 190.917969 29.351562 C 190.917969 29.3125 190.976562 29.21875 191.054688 29.144531 C 191.273438 28.925781 191.820312 27.574219 191.957031 26.910156 C 192.839844 22.667969 188.890625 18.757812 184.664062 19.6875 M 187.417969 20.953125 C 188.984375 21.507812 190.042969 22.554688 190.640625 24.136719 C 191.660156 26.824219 189.792969 30.039062 186.851562 30.65625 C 183.914062 31.273438 180.921875 28.824219 180.917969 25.800781 C 180.914062 22.460938 184.382812 19.871094 187.417969 20.953125 M 183 25.710938 L 183 28.933594 L 184 28.933594 L 184 26.175781 L 184.660156 26.175781 C 185.40625 26.175781 185.644531 26.242188 185.929688 26.535156 C 186.214844 26.828125 186.5 27.171875 186.5 27.226562 C 186.5 27.25 186.6875 27.550781 186.917969 27.890625 C 187.144531 28.230469 187.332031 28.542969 187.332031 28.585938 C 187.332031 28.800781 187.660156 28.933594 188.195312 28.933594 C 188.839844 28.933594 188.832031 28.949219 188.46875 28.398438 C 188.316406 28.164062 188.027344 27.710938 187.824219 27.386719 C 187.625 27.066406 187.300781 26.636719 187.105469 26.4375 L 186.75 26.074219 L 187.226562 25.84375 C 188.496094 25.238281 188.640625 23.570312 187.492188 22.789062 L 187.125 22.539062 L 183 22.484375 L 183 25.710938 M 186.796875 23.488281 C 187.300781 23.796875 187.378906 24.519531 186.949219 24.949219 C 186.667969 25.230469 186.117188 25.339844 184.953125 25.339844 L 184 25.339844 L 184 23.332031 L 185.269531 23.332031 C 186.367188 23.332031 186.578125 23.355469 186.796875 23.488281 "/>
</g>
</svg>
